<?xml version="1.0" encoding="UTF-8"?>
<!DOCTYPE svg PUBLIC "-//W3C//DTD SVG 1.1//EN" "http://www.w3.org/Graphics/SVG/1.1/DTD/svg11.dtd">
<!-- Creator: CorelDRAW 2020 (64-Bit) -->
<svg xmlns="http://www.w3.org/2000/svg" xml:space="preserve" width="297mm" height="210mm" version="1.1" style="shape-rendering:geometricPrecision; text-rendering:geometricPrecision; image-rendering:optimizeQuality; fill-rule:evenodd; clip-rule:evenodd"
viewBox="0 0 29700 21000"
 xmlns:xlink="http://www.w3.org/1999/xlink"
 xmlns:xodm="http://www.corel.com/coreldraw/odm/2003">
 <defs>
  <style type="text/css">
   <![CDATA[
    .fil7 {fill:#080A0A}
    .fil8 {fill:#697271}
    .fil5 {fill:#B1DED6}
    .fil3 {fill:#C4E4DF}
    .fil0 {fill:#D8EBE6}
    .fil6 {fill:#E4D3E6}
    .fil2 {fill:#F4D1B5}
    .fil1 {fill:#FAC6DA}
    .fil4 {fill:#FEFD96}
   ]]>
  </style>
 </defs>
 <g id="Capa_x0020_1">
  <metadata id="CorelCorpID_0Corel-Layer"/>
  <path class="fil0" d="M8703.07 13869.79c-195.29,640.65 -1087.06,398.79 -930.09,-262.64 156.44,-659.16 1131.92,-399.44 930.09,262.64zm-3958.76 -480.84c-35.6,-273.39 104.85,-549.66 370.22,-611.26 308.31,-71.56 559.8,154.72 585.29,417.34 68.59,706.82 -876.63,799.97 -955.51,193.92zm1276.33 -188.47c95.59,6.32 220.65,124.63 316.81,182.93 108.19,65.59 226.29,115.53 360.17,145.38 387.71,86.43 560.37,-82.17 859.34,-155.16 -19.72,112.32 16.66,112.69 -343.92,220.13 -311.42,92.78 -631,50.24 -905.84,-114.5 -75.08,-45.01 -98.53,-69.13 -170.35,-118.9 -142.63,-98.86 -93.98,-48.72 -116.21,-159.88zm1979.43 -550.5c194.34,-29.55 488.19,39.44 530.38,185.08 -68.91,45.28 -34.16,36.32 -143.97,-18.95 -361.01,-181.69 -394.4,12.87 -542.79,-68.26 29.38,-81.72 40.01,-80.18 156.38,-97.87zm-2491.95 -89.19c-105.91,-17.43 -44.41,22.07 -82.88,-79.29 96.06,36.11 54.65,-22.4 82.88,79.29zm-386.18 -455.23c263.88,-33.03 617.03,34.13 645.56,238 -136.88,41.81 -119.18,-93.47 -340.53,-130.66 -109.68,-15.26 -235.05,5.72 -327.65,-22.89 -25.15,-152.64 -9.7,-38.6 22.62,-84.45zm1586.65 -2947.94c-78.55,64.54 -207.29,101.84 -307.78,163.95 -451.41,279 -581.88,562.43 -751.06,675.11 -63.07,-96.23 -123.17,-123.5 -177.21,-228 -110.39,-49.97 -103.42,-89.02 -213.47,-149.92 -69.57,-38.5 -167.29,-74.94 -251.64,-99.31 -204.09,-58.9 -339.84,-98.48 -604.05,-104.2l-159.91 -4.41c-73.48,43.24 -151.32,50.9 -247,95.07 -82.41,38.04 -141.45,69.94 -223.43,117.61 -71.91,101.42 -127.1,131.05 -202.89,202.02 -79.26,74.22 -73.58,111.31 -161.93,211.03 -108.22,176.62 -118.88,293.06 -204.89,517.64l-74.2 18.94 -617.98 51.39 -288.88 94.04 -364.55 153.84c-88.29,78.25 -202.56,160.53 -274.48,238.01 -78.04,84.05 -116.34,208.36 -194.19,288.45 -76.87,161.06 -114.4,369.61 -126.47,574.31 10.08,291.25 54.74,446.95 149.14,671.02 70.77,90.17 129.22,213.36 187.25,284.88 206.76,254.78 554.39,506.65 894.36,539.48 123.46,33.76 154.71,34.53 281.78,37.71 35.04,0.88 99.9,4.31 131.02,3.66 113.62,-2.37 64.31,4.56 92.95,-22.14 -46.59,218.59 -19.46,337.48 -37.65,551.57l39.55 433.07c21.82,64.58 34.21,151.66 58.91,229.28 31.93,100.29 55.36,122.22 88.58,211.13 47.37,90.84 89.51,149.34 138.62,229.71 165.22,190.65 238.36,329.75 497.11,461.61 88.75,77.82 257.9,154.32 382.01,181.26l340.34 128.05 254.09 10.4c336.24,1.12 537.79,28.55 850.95,-73.73 279.53,-91.32 572.13,-275.65 656.99,-299.47l87.92 91.46c68.44,52.5 111.93,81.55 147.93,159.48 131.17,126.4 305.3,274.16 478.01,340.12 264.78,152.3 564.99,274.31 888.83,290.15 436.04,21.33 644.08,-95.42 1000.74,-183.27 107.8,-68.28 254.6,-125.32 353.73,-188.73 556.25,-355.82 741.12,-859.85 810.09,-925.73l14.59 -73.66c125.65,36.08 76.38,47.9 151.89,103.95 49.99,37.1 116.56,55.01 179.74,76.44 144.65,49.03 270.66,68.81 432.44,74.34 253.28,-11.08 574.15,-93.37 761.37,-200.78 104.13,-59.75 207.74,-139.37 287.5,-202.25 103.96,-81.95 174.11,-176.16 247.49,-225.85 28.67,-98.84 18.78,-84.07 84.23,-143.01 91.44,-266.06 167.45,-300.14 164.2,-643.49 -14.83,-124.8 -18.27,-206.51 -57.23,-321.88 -41.4,-122.59 -92.04,-195.3 -123.82,-296.57 -41.55,-51.52 -52.09,-82.79 -94.96,-138.09 -77.61,-86.53 -153.31,-178.29 -224.44,-247.7 -77.08,-75.22 -150.95,-122.22 -244.44,-229.42l-175.96 -129.29 -154.69 -69.59 60.54 -468.86c-28.08,-387.74 -129.86,-425.42 -191.63,-674.68 -123.43,-73.25 -166.64,-194.95 -341.76,-305.32 -835.83,-472.74 -932.71,-91.93 -952.08,-381.78 -48.56,110.53 -19.85,36.21 -65.83,118.24 -246.49,4.19 -271.86,57.41 -447.07,74.48 -30.85,-52.52 1.49,31.75 -31.47,-69.54 -58.3,-179.07 18.73,-64.11 -128.95,-448.71 -138.33,-84.47 -36.86,-32.37 -99.14,-169.1l-60.4 -92.72c-119.58,-231.88 -42.18,-39.11 -184.41,-232.22l-226.63 -251.35c-4.9,-4.36 -12.25,-10.6 -17.11,-15 -159.86,-144.88 -80.84,33.03 -116.84,-187.63l-64.65 37.77c-201.53,-152.9 -416.51,-217.37 -662.31,-294.86 -546.93,-52.47 -555.04,-33.56 -1045.41,51.59z"/>
  <path class="fil0" d="M21261 13837.72c-65.98,-302.95 137.95,-566.38 365.14,-612.35 318.12,-64.38 550.75,180.26 588.2,426.68 104.71,689.03 -818.64,804.05 -953.34,185.67zm3030.76 -416.71c-75.44,-302.73 81.97,-598.02 344.39,-648.46 671.35,-129.04 814.38,882.82 242.81,1007.85 -287.93,62.98 -531.55,-136.14 -587.2,-359.39zm-1874.1 -46.16c302.97,68.95 459.42,238.14 852.49,157.56 304.2,-62.36 577.24,-325.89 685.39,-331.3 -3.87,105.24 13.5,88.56 -267.38,265.67 -371.59,234.3 -716.24,211.35 -1114.3,61.87 -11.25,-4.22 -88.82,-34 -91.03,-35.57 -71.63,-50.96 -46.1,-19.95 -65.17,-118.23zm2026.42 -666.2l-25.26 37.67c38.57,-135.55 -79.64,-4.97 25.26,-37.67zm-2998.99 126.51c54.84,-189.79 605.54,-296.42 686.39,-87.31 -128.24,70.19 -224.78,-100.99 -543.02,63.44 -113.79,58.78 -69.81,71.49 -143.37,23.87zm3063.11 -347.43c8.93,12.49 91.51,-80.7 0,75.24 -1.1,-1.62 -110.28,12.6 0,-75.24zm344.4 -381.53c34.2,47.19 50.5,-68.74 22.83,83.54l-328.14 22.86c-219.95,38.58 -202.87,172.55 -339.69,131.15 26.6,-200.71 380.82,-274.28 645,-237.55zm-2678.49 -2976.5l-59.19 7.1c-134.79,43.51 -261.71,92.85 -384.11,159.06 -79.59,43.05 -125.9,61.11 -184.41,102.4 -85.86,60.59 -69.48,64.92 -168.53,113.73l-548.3 736.18c-74.32,165 -16.87,128.53 -104.56,216.07 -11.42,124.44 -66.03,212.9 -79.71,372.32 -143.96,-27.55 -194.23,-78.7 -334.96,-92.88 -289.19,-29.16 -256.49,31.81 -319.85,-113.77 14.19,216.17 -126.35,77.36 -431.51,190.71l-416.47 198.88c-119.41,90.96 -224.99,247.52 -319.77,302.43 -84.72,186.51 -172.36,397.29 -189.99,673.85l50.49 432.08 -157.99 106.12 -124.89 105.15c-155.86,129.43 -416.62,362.45 -514.59,526.87 -17.36,27.52 -46.09,72.99 -68.08,105.03 -129.78,223.15 -166.57,332 -203.08,628.82 -0.19,121.09 10.92,236.39 35.45,335.96 27.56,111.84 82.54,195.36 128.64,310.15 92.75,68.94 59.73,26.52 87.36,131.4 71.51,59.66 186.34,257.2 534.32,433.31 230.6,116.71 464.92,180.46 760.52,203.94 157.73,-5.95 296.86,-23.24 433.51,-74.54 303.94,-114.12 192.09,-129.13 329.84,-179.19l34.1 77.62c3.59,8.55 8.05,12.43 9.69,26.07l310.32 496.18c60.59,61.23 92.27,81.08 153.48,137.92 339.05,314.78 634.63,398.08 682.41,469.85 143.35,5.46 274.19,80.94 437.9,112.57 212.23,40.99 321.94,59.5 551.97,50.34 392.88,-15.65 603.05,-187.51 877.59,-261.11 145.63,-139.79 347.74,-219.21 483.27,-367.88l149.58 -160.3c50.86,-42.01 56.15,-39.25 92.25,-90.23 126.38,42.67 190.92,107.22 307.69,160.54 630.01,287.63 704.29,191.96 1281.14,193.74l201.75 -18.53c138.53,-45.96 163.98,-11.89 309.8,-106.31 162.4,-31.22 220.74,-98.73 360.87,-125.99 51.45,-98.75 52.38,-51.99 140.79,-112.06 48.77,-33.14 82.25,-77.57 133.18,-124.15 130.04,-118.93 151.76,-194.9 261.89,-290.85l100.78 -211.31c141.97,-213.62 98.65,-243.32 169.58,-440.77l51.49 -546.46 -38.51 -426.4 508.94 -25.28c199.9,-55.56 488.69,-224.46 630.6,-224.08l-4.95 -96.86c237.44,-159.27 282.48,-273.4 441.6,-540.02 104.65,-239.23 145.83,-356.32 150.09,-647.91 -18.71,-267.11 -40.84,-411.7 -166.08,-619.86 -59.37,-93.09 -120.32,-198.33 -187.78,-273.39 -66.02,-73.46 -164.69,-126.85 -242.01,-203.77l-358.57 -154.06 -266.41 -82.74 -647.76 -64.81 -79.3 -18.3c-14.58,-155.15 -120.4,-358.51 -186.59,-495.65 -76.99,-95.39 -88.91,-139.65 -179.43,-226.23 -72.21,-69.07 -125.83,-108.71 -196.9,-207.45 -86.31,-46.34 -137.79,-87.48 -219.29,-115.76 -115.03,-39.94 -126.65,-26.33 -230.09,-91.24l-179.33 -3.66c-218.97,6.97 -501.45,58.34 -680.2,126.58 -248.17,94.72 -310.04,197.35 -477.33,302.17 -35.08,135.01 -57.96,102.3 -100.61,137.85 -122.57,-63.74 -167.73,-167.97 -247.91,-252.79 -236.67,-250.33 -513.7,-448.94 -857.52,-570.24 -369.02,-122.13 -642.62,-120.03 -1036.32,-26.16z"/>
  <path class="fil1" d="M12721.87 3225.82l-550.25 134.67 -712.89 224.69 -203.21 65.39c-7.2,5.51 -17.87,5.14 -21.64,16.48l-177.33 81.91c-90.34,37.37 -141.2,72.42 -240.96,89.4 -73.61,58.07 -480.26,247.88 -577.48,279.75 -62.54,62.38 -232.93,138.38 -333.3,210.38l-334.75 180.63c-87.86,76.22 -593.84,424.71 -645.36,444.98 -50.73,58.09 -621.97,523.75 -672.71,547.63l-60.43 59.46c-90.37,138.63 -203.37,201.28 -289.58,293.18 -94.2,100.39 -154.16,201.9 -295.24,288.72l-49.74 60.46 -513.79 652.61c-86.82,126.07 -169.88,222.58 -245.96,331.13 -83.07,118.53 -151.35,240.13 -233.39,342.88l-217.32 350.68c-38.47,99.45 -116.15,236.51 -182.77,320.94 -28.92,90.33 -248.47,515.8 -291.56,579.67l-179.22 378.06 -97.46 247.67 -122.99 361.49c54.04,104.5 114.14,131.77 177.21,228 169.18,-112.68 299.65,-396.11 751.06,-675.11 100.49,-62.11 229.23,-99.41 307.78,-163.95 28.01,-219.68 628,-1217.56 846.28,-1531.29l230.68 -318.55c39.89,-56.45 56.85,-66.76 97.04,-124.64l1466.08 -1458.12 895.02 -614.57c1459.56,-887.6 2984.62,-1213.9 4711.95,-1214.91 2503.27,-1.47 4440.74,901.63 6118.55,2319.27 744.55,629.11 1849.7,2052.52 2136.24,2941.05 343.82,121.3 620.85,319.91 857.52,570.24 80.18,84.82 125.34,189.05 247.91,252.79 42.65,-35.55 65.53,-2.84 100.61,-137.85 -34.2,-158.16 -114.46,-299.68 -129.28,-428.16l-278.98 -638.76c-67.69,-109.63 -260.91,-474.28 -283.13,-589.95 -59.17,-50.1 -5.39,12.05 -62.66,-71.17 -25.59,-37.16 -28.79,-51.45 -64.34,-99.42 -63.08,-174.91 -191.23,-323.05 -276.93,-480.91 -5.43,-6.73 -13.56,-25.78 -15.9,-20.47l-224.25 -324.7c-426.96,-594.15 -1125.81,-1379.3 -1676.04,-1816.87 -119.07,-94.7 -239.64,-193.34 -336.56,-281.72l-183.81 -125.1c-140.59,-99.29 -308.85,-232.62 -466.05,-315.26l-536.97 -323.09 -91.82 -70.56 -628.44 -317.82c-215.78,-77.63 -442.3,-189.37 -673.21,-267.45 -72.67,-24.57 -665.86,-224.93 -704.96,-255.46l-551.9 -144c-150.62,-16.2 -674.71,-85.27 -752.39,-158.64 -138.48,10.69 -155.36,-7.05 -288.26,-22.03 -117.14,-13.21 -240.29,15.14 -262.79,-86.55l-1869.88 0c-130.47,98.37 -510.63,92.8 -672.6,111.67 -244.38,28.48 -436,82.9 -663.45,111.2z"/>
  <path class="fil2" d="M6708.59 9157.62c490.37,-85.15 498.48,-104.06 1045.41,-51.59 62.51,-122.33 129.79,-259.54 199.15,-376.5 448.35,-755.91 1121.96,-1547.99 1790.68,-2091.12 2445.51,-1986.29 5638.82,-2350.04 8568.35,-1126.35 294.58,123.05 1202.61,588.71 1396.23,796.05 87.24,40.12 62.98,30.59 133.69,80.03 533.26,372.85 1209.75,1012.88 1586.44,1520.84 178.03,240.05 722.99,994.37 745.57,1220.72 393.7,-93.87 667.3,-95.97 1036.32,26.16 -286.54,-888.53 -1391.69,-2311.94 -2136.24,-2941.05 -1677.81,-1417.64 -3615.28,-2320.74 -6118.55,-2319.27 -1727.33,1.01 -3252.39,327.31 -4711.95,1214.91l-895.02 614.57 -1466.08 1458.12c-40.19,57.88 -57.15,68.19 -97.04,124.64l-230.68 318.55c-218.28,313.73 -818.27,1311.61 -846.28,1531.29z"/>
  <path class="fil3" d="M8480.96 9363.12c36,220.66 -43.02,42.75 116.84,187.63 4.86,4.4 12.21,10.64 17.11,15l226.63 251.35c142.23,193.11 64.83,0.34 184.41,232.22l60.4 92.72c62.28,136.73 -39.19,84.63 99.14,169.1 -58.79,-298.59 105,-477.13 319.4,-833.49 450.85,-749.38 1075.57,-1361.44 1757.98,-1864.09 1013.65,-746.6 2401.58,-1118.13 3724.82,-1093.5 1663.2,30.95 2824.37,607.08 3934.73,1460.71 600.19,461.4 1333.51,1333.27 1655.94,1999.98 75.09,155.24 161.81,258.19 146.65,483.49 87.69,-87.54 30.24,-51.07 104.56,-216.07l548.3 -736.18c-63.55,-21.98 -12.55,49.01 -145.04,-189.47 -371.58,-668.84 -729.21,-1081.56 -1262.29,-1621.68 -1211.36,-1227.37 -3080.42,-2058.58 -4981.89,-2090.18 -2240.45,-37.22 -4044.86,809.99 -5426.7,2288.11 -297.32,318.04 -607.18,705.17 -840.56,1083.48 -38.87,63.01 -193.98,343.45 -240.43,380.87z"/>
  <path class="fil4" d="M7754 9106.03c245.8,77.49 460.78,141.96 662.31,294.86l64.65 -37.77c46.45,-37.42 201.56,-317.86 240.43,-380.87 233.38,-378.31 543.24,-765.44 840.56,-1083.48 1381.84,-1478.12 3186.25,-2325.33 5426.7,-2288.11 1901.47,31.6 3770.53,862.81 4981.89,2090.18 533.08,540.12 890.71,952.84 1262.29,1621.68 132.49,238.48 81.49,167.49 145.04,189.47 99.05,-48.81 82.67,-53.14 168.53,-113.73 58.51,-41.29 104.82,-59.35 184.41,-102.4 122.4,-66.21 249.32,-115.55 384.11,-159.06 -46.62,-210.77 -726.11,-1186.12 -900.26,-1366.97 -68.57,-71.21 -109.28,-117.01 -161.93,-190.03l-795.87 -808.77c-182.49,-178.39 -471.15,-360.58 -548.45,-462.92 -193.62,-207.34 -1101.65,-673 -1396.23,-796.05 -2929.53,-1223.69 -6122.84,-859.94 -8568.35,1126.35 -668.72,543.13 -1342.33,1335.21 -1790.68,2091.12 -69.36,116.96 -136.64,254.17 -199.15,376.5z"/>
  <path class="fil5" d="M9185.49 10311.14c147.68,384.6 70.65,269.64 128.95,448.71 32.96,101.29 0.62,17.02 31.47,69.54 175.21,-17.07 200.58,-70.29 447.07,-74.48 45.98,-82.03 17.27,-7.71 65.83,-118.24 81,-125.22 132.96,-247.76 192.38,-356.08 396.39,-722.53 1006.24,-1427.07 1702.15,-1921.42 1890.09,-1342.64 4448,-1323.02 6340.19,0.48 996.74,697.17 1369.61,1334.09 1896.96,2270.26 63.36,145.58 30.66,84.61 319.85,113.77 140.73,14.18 191,65.33 334.96,92.88 13.68,-159.42 68.29,-247.88 79.71,-372.32 15.16,-225.3 -71.56,-328.25 -146.65,-483.49 -322.43,-666.71 -1055.75,-1538.58 -1655.94,-1999.98 -1110.36,-853.63 -2271.53,-1429.76 -3934.73,-1460.71 -1323.24,-24.63 -2711.17,346.9 -3724.82,1093.5 -682.41,502.65 -1307.13,1114.71 -1757.98,1864.09 -214.4,356.36 -378.19,534.9 -319.4,833.49z"/>
  <path class="fil6" d="M9858.81 10636.67c19.37,289.85 116.25,-90.96 952.08,381.78 -14.46,-186.37 -19.21,-192.54 58.51,-325.8 168.44,-376.51 719.03,-1075.81 1062.89,-1306.02l136.78 -118.22c124.82,-130.35 511.68,-378.58 672.1,-445.99l102.12 -43.35c104.57,-98.34 372.02,-200.56 541.13,-243.65l513.1 -144.78c105.39,-76.47 605.33,-113.33 769.39,-114.59l635.89 6.42c187.64,8.51 658.19,53.85 771.85,145.02l521.25 162.68 389.89 182.96 237.62 130.65c132.01,48.54 566.51,347.92 685.85,442.48l335.33 335.61c69.32,79.63 122.87,135.14 211.38,237.09 169.33,195.04 476.04,569.75 530.88,794.25 81.54,70.58 134.36,201.97 155.66,306.29l416.47 -198.88c305.16,-113.35 445.7,25.46 431.51,-190.71 -527.35,-936.17 -900.22,-1573.09 -1896.96,-2270.26 -1892.19,-1323.5 -4450.1,-1343.12 -6340.19,-0.48 -695.91,494.35 -1305.76,1198.89 -1702.15,1921.42 -59.42,108.32 -111.38,230.86 -192.38,356.08z"/>
  <path class="fil1" d="M21261 13837.72c134.7,618.38 1058.05,503.36 953.34,-185.67 -37.45,-246.42 -270.08,-491.06 -588.2,-426.68 -227.19,45.97 -431.12,309.4 -365.14,612.35z"/>
  <path class="fil1" d="M24291.76 13421.01c55.65,223.25 299.27,422.37 587.2,359.39 571.57,-125.03 428.54,-1136.89 -242.81,-1007.85 -262.42,50.44 -419.83,345.73 -344.39,648.46z"/>
  <path class="fil1" d="M4744.31 13388.95c78.88,606.05 1024.1,512.9 955.51,-193.92 -25.49,-262.62 -276.98,-488.9 -585.29,-417.34 -265.37,61.6 -405.82,337.87 -370.22,611.26z"/>
  <path class="fil1" d="M8703.07 13869.79c201.83,-662.08 -773.65,-921.8 -930.09,-262.64 -156.97,661.43 734.8,903.29 930.09,262.64z"/>
  <path class="fil7" d="M22417.66 13374.85c19.07,98.28 -6.46,67.27 65.17,118.23 2.21,1.57 79.78,31.35 91.03,35.57 398.06,149.48 742.71,172.43 1114.3,-61.87 280.88,-177.11 263.51,-160.43 267.38,-265.67 -108.15,5.41 -381.19,268.94 -685.39,331.3 -393.07,80.58 -549.52,-88.61 -852.49,-157.56z"/>
  <path class="fil7" d="M6020.64 13200.48c22.23,111.16 -26.42,61.02 116.21,159.88 71.82,49.77 95.27,73.89 170.35,118.9 274.84,164.74 594.42,207.28 905.84,114.5 360.58,-107.44 324.2,-107.81 343.92,-220.13 -298.97,72.99 -471.63,241.59 -859.34,155.16 -133.88,-29.85 -251.98,-79.79 -360.17,-145.38 -96.16,-58.3 -221.22,-176.61 -316.81,-182.93z"/>
  <path class="fil7" d="M21445.09 12835.16c73.56,47.62 29.58,34.91 143.37,-23.87 318.24,-164.43 414.78,6.75 543.02,-63.44 -80.85,-209.11 -631.55,-102.48 -686.39,87.31z"/>
  <path class="fil7" d="M7843.69 12747.85c148.39,81.13 181.78,-113.43 542.79,68.26 109.81,55.27 75.06,64.23 143.97,18.95 -42.19,-145.64 -336.04,-214.63 -530.38,-185.08 -116.37,17.69 -127,16.15 -156.38,97.87z"/>
  <path class="fil7" d="M24547.29 12212.6c56.39,-73.99 187.42,-43.15 281.47,-26.71l23.84 -79.69c-264.18,-36.73 -618.4,36.84 -645,237.55 136.82,41.4 119.74,-92.57 339.69,-131.15z"/>
  <path class="fil7" d="M5426.97 12212.9c221.35,37.19 203.65,172.47 340.53,130.66 -28.53,-203.87 -381.68,-271.03 -645.56,-238l24.69 80.86c92.09,-16.88 227.21,-48.65 280.34,26.48z"/>
  <path class="fil8" d="M5426.97 12212.9c-53.13,-75.13 -188.25,-43.36 -280.34,-26.48l-24.69 -80.86c-32.32,45.85 -47.77,-68.19 -22.62,84.45 92.6,28.61 217.97,7.63 327.65,22.89z"/>
  <path class="fil8" d="M24547.29 12212.6l328.14 -22.86c27.67,-152.28 11.37,-36.35 -22.83,-83.54l-23.84 79.69c-94.05,-16.44 -225.08,-47.28 -281.47,26.71z"/>
  <path class="fil1" d="M24508.2 12487.73c-110.28,87.84 -1.1,73.62 0,75.24 91.51,-155.94 8.93,-62.75 0,-75.24z"/>
  <path class="fil1" d="M5508.12 12560.79c-28.23,-101.69 13.18,-43.18 -82.88,-79.29 38.47,101.36 -23.03,61.86 82.88,79.29z"/>
  <path class="fil1" d="M24444.08 12708.65c-104.9,32.7 13.31,-97.88 -25.26,37.67l25.26 -37.67z"/>
 </g>
</svg>
